<?xml version="1.0" encoding="UTF-8"?>
<svg version="1.1" xmlns="http://www.w3.org/2000/svg" width="1420" height="884">
<path d="M0 0 C468.6 0 937.2 0 1420 0 C1420 291.72 1420 583.44 1420 884 C951.4 884 482.8 884 0 884 C0 592.28 0 300.56 0 0 Z " fill="#FEFEFE" transform="translate(0,0)"/>
<path d="M0 0 C0.65097656 0.22703613 1.30195313 0.45407227 1.97265625 0.68798828 C22.06615927 7.86786373 38.45498852 19.55011454 53 35 C56.15375806 33.95356957 59.30272494 32.89600266 62.4453125 31.81640625 C95.81632298 20.44475618 130.21939862 20.75742961 162.37890625 36.03515625 C171.76395864 40.69427625 179.97876106 46.28766616 188 53 C188.76957031 53.6290625 189.53914063 54.258125 190.33203125 54.90625 C210.97605171 72.27406836 226.255516 100.36797179 230 127 C230.1143627 129.70259857 230.18728259 132.37930526 230.203125 135.08203125 C230.20882507 135.85447678 230.21452515 136.6269223 230.22039795 137.42277527 C230.22981278 139.05747121 230.23636789 140.69218582 230.24023438 142.3269043 C230.24982174 144.76712722 230.28082748 147.20646292 230.3125 149.64648438 C230.36683874 158.54270625 229.8890378 166.84546189 227.68096924 175.50312805 C227.12455455 177.7160688 227.12455455 177.7160688 227 181 C229.08009567 184.09788198 231.0686639 185.74582908 234.1015625 187.90625 C238.99671405 191.44237026 242.34952589 196.2411092 246 201 C246.66773438 201.85207031 247.33546875 202.70414063 248.0234375 203.58203125 C270.91736212 233.76038644 280.17705776 271.20843598 275.25 308.75 C274.86948283 310.84023816 274.45262206 312.92418157 274 315 C273.75507812 316.21429688 273.51015625 317.42859375 273.2578125 318.6796875 C268.37118813 341.28209368 257.89946683 362.3757715 243 380 C242.56961426 380.51014648 242.13922852 381.02029297 241.69580078 381.54589844 C224.32388521 401.86144226 202.12749928 415.64744698 176.9375 424.3125 C176.2789502 424.54291992 175.62040039 424.77333984 174.94189453 425.01074219 C161.16543637 429.5028504 147.37756579 430.48522453 133 430.6875 C131.33851684 430.72078812 129.67705749 430.75528765 128.015625 430.79101562 C124.01055213 430.87457364 120.00552085 430.94198149 116 431 C115.63986816 431.79543213 115.27973633 432.59086426 114.90869141 433.41040039 C106.63202915 451.68056782 98.28834723 469.91845998 89.87158203 488.12451172 C89.11488541 489.76138239 88.35821231 491.39826394 87.6015625 493.03515625 C87.03878098 494.25262543 87.03878098 494.25262543 86.46463013 495.49468994 C83.68429673 501.51220266 80.91393717 507.53425063 78.1484375 513.55859375 C77.75544464 514.41464203 77.36245178 515.27069031 76.95755005 516.15267944 C75.07238575 520.25983898 73.18827873 524.36748092 71.30517578 528.47558594 C70.63054702 529.94596958 69.95590579 531.41634751 69.28125 532.88671875 C68.97690033 533.55150742 68.67255066 534.21629608 68.35897827 534.90122986 C66.08728764 539.85024416 66.08728764 539.85024416 64.92353249 541.84685135 C63.7537586 544.57409388 63.73782566 546.71572912 63.7215271 549.68206787 C63.71036362 550.84030563 63.69920013 551.9985434 63.68769836 553.19187927 C63.68445808 555.09188438 63.68445808 555.09188438 63.68115234 557.03027344 C63.67185195 558.38060607 63.66168311 559.73093296 63.65071106 561.08125305 C63.62340941 564.74411033 63.60826121 568.40692914 63.59528303 572.06986141 C63.5796532 575.89893442 63.55286251 579.72792888 63.5272522 583.5569458 C63.48046179 590.80643155 63.44371896 598.05593208 63.41057932 605.30549169 C63.36521341 615.10274096 63.30433996 624.89989305 63.24433136 634.69706154 C63.15020416 650.13132565 63.07680808 665.56561749 63 681 C40.56 681 18.12 681 -5 681 C-4.8865625 671.43257812 -4.773125 661.86515625 -4.65625 652.0078125 C-4.620016 645.87356402 -4.58795662 639.73974112 -4.57421875 633.60546875 C-4.55175678 623.91091081 -4.51381587 614.2184622 -4.36572266 604.52490234 C-2.59947332 556.18920344 -2.59947332 556.18920344 -20.01971436 512.13092041 C-23.3531026 506.86068411 -25.74773367 501.20467457 -28.25 495.5 C-29.2098909 493.40457378 -30.17294537 491.31059075 -31.140625 489.21875 C-31.61048828 488.19652344 -32.08035156 487.17429687 -32.56445312 486.12109375 C-34.53688697 481.83272738 -36.51527781 477.54712154 -38.49414062 473.26171875 C-39.48828838 471.10837666 -40.48179111 468.95473664 -41.47460938 466.80078125 C-43.82651793 461.69928342 -46.18371176 456.60040225 -48.5579834 451.50927734 C-49.40963049 449.68251419 -50.25973967 447.85504334 -51.109375 446.02734375 C-52.18441394 443.71601003 -53.26243164 441.40605892 -54.34375 439.09765625 C-54.82328125 438.06511719 -55.3028125 437.03257812 -55.796875 435.96875 C-56.22323242 435.05544922 -56.64958984 434.14214844 -57.08886719 433.20117188 C-58 431 -58 431 -58 429 C-58.51304687 429.16081055 -59.02609375 429.32162109 -59.5546875 429.48730469 C-89.71180758 435.8101833 -124.95933093 427.15755982 -152 414 C-152.94069336 413.54802246 -152.94069336 413.54802246 -153.90039062 413.08691406 C-167.28310261 406.57472929 -179.04955753 398.06198431 -189.9296875 387.91796875 C-191.63581654 386.33738505 -193.3628299 384.87526362 -195.1875 383.4375 C-223.64289962 358.77615366 -241.3017383 316.95278963 -244 280 C-246.11015981 233.91773117 -233.32830458 191.79391497 -202.5625 156.875 C-201.0504743 155.24180151 -199.52939925 153.61694062 -198 152 C-197.19304687 151.12859375 -196.38609375 150.2571875 -195.5546875 149.359375 C-191.48011712 145.10236117 -187.87263748 141.40533802 -182.77734375 138.4453125 C-174.82767255 133.93918907 -174.82767255 133.93918907 -170.22460938 126.43212891 C-169.39837064 120.49277486 -169.62451003 114.57930901 -169.91308594 108.60498047 C-170.87509695 79.77167296 -152.42474711 51.3630713 -134.11328125 30.890625 C-116.68597208 12.62300533 -93.33586539 0.85590957 -69 -5 C-68.08863281 -5.22558594 -67.17726562 -5.45117188 -66.23828125 -5.68359375 C-44.68568909 -10.14169056 -20.60253742 -7.19004738 0 0 Z " fill="#6BB93C" transform="translate(262,31)"/>
<path d="M0 0 C0.77730469 0.61230469 1.55460937 1.22460938 2.35546875 1.85546875 C23.73487538 19.60226824 35.29070985 46.90709849 38 74 C38 96.77 38 119.54 38 143 C-25.36 143 -88.72 143 -154 143 C-153.78342335 180.43623844 -153.78342335 180.43623844 -136.3125 210.81640625 C-128.94502343 217.59944357 -119.64425057 221.69437741 -110 224 C-109.03392822 224.25269653 -109.03392822 224.25269653 -108.04833984 224.51049805 C-102.27469848 225.93581417 -96.81129549 226.34999123 -90.875 226.3125 C-89.95920166 226.30831055 -89.04340332 226.30412109 -88.09985352 226.29980469 C-72.00992801 226.03522794 -56.40806872 222.04610921 -43 213 C-42.0925 212.401875 -41.185 211.80375 -40.25 211.1875 C-37.93645757 209.19913249 -37.93645757 209.19913249 -37.00363159 206.848526 C-35.61029806 204.00681713 -34.35642735 202.13151143 -32 200 C-26.93221065 198.71063297 -21.93854726 198.94995331 -16.7578125 199.12109375 C-15.26427048 199.13789561 -13.7706786 199.15069936 -12.27706909 199.15968323 C-8.3597539 199.19392773 -4.44547804 199.28221537 -0.52935791 199.38201904 C3.47219727 199.47435559 7.47424738 199.51524754 11.4765625 199.56054688 C19.31909793 199.6568568 27.15917016 199.81030019 35 200 C34.6940184 201.42795349 34.38489142 202.8552332 34.07446289 204.28222656 C33.90266006 205.07711487 33.73085724 205.87200317 33.55384827 206.690979 C28.06599959 229.57009335 8.96822561 248.79542076 -10.1875 261.125 C-45.87394132 282.25237733 -89.90704651 287.49547818 -130 278 C-131.04583252 277.76772705 -131.04583252 277.76772705 -132.11279297 277.53076172 C-160.88432974 271.11419029 -187.2106794 255.24674555 -203.5625 230.375 C-209.82854349 220.47280716 -214.58744885 210.27555478 -217.8125 199 C-218.10495605 197.98824707 -218.10495605 197.98824707 -218.40332031 196.95605469 C-222.34441301 182.14394086 -222.32543559 167.13410878 -222.3359375 151.92578125 C-222.34238321 149.70826639 -222.3491128 147.49075233 -222.35610962 145.27323914 C-222.36801768 140.64478589 -222.37179714 136.01640691 -222.37060547 131.38793945 C-222.37040261 125.51272319 -222.39770034 119.63799238 -222.43214989 113.76289082 C-222.45459471 109.1872497 -222.45843768 104.6117222 -222.45738602 100.03603172 C-222.45971579 97.87270626 -222.46838739 95.70937635 -222.48405075 93.54610634 C-222.70222621 60.30611549 -213.82997459 29.23083997 -190.125 5.00390625 C-142.28078416 -41.87125199 -50.70181912 -41.30987578 0 0 Z " fill="#6A4F3A" transform="translate(1365,436)"/>
<path d="M0 0 C0.80742645 0.00087616 1.61485291 0.00175232 2.44674683 0.00265503 C39.98369514 0.13631748 74.35834661 10.40350022 101.9375 36.6875 C137.8335596 73.88602911 132.1875 122.50362342 132.1875 172.375 C68.4975 172.375 4.8075 172.375 -60.8125 172.375 C-60.54998398 206.97076437 -60.54998398 206.97076437 -45.8125 236.375 C-45.06419922 237.31085938 -45.06419922 237.31085938 -44.30078125 238.265625 C-34.4508295 249.28169195 -19.65813475 254.42652645 -5.28173828 255.57763672 C14.36244264 256.6057639 36.74039657 254.43340783 52.3203125 241.17578125 C56.08990422 237.54025451 59.28486825 233.72894763 62.1875 229.375 C64.97158813 229.01423645 64.97158813 229.01423645 68.56494141 229.03442383 C69.21872269 229.03398575 69.87250397 229.03354767 70.5460968 229.03309631 C72.71072075 229.03518919 74.8745736 229.0585422 77.0390625 229.08203125 C78.53835629 229.08762547 80.03765556 229.09189639 81.53695679 229.09489441 C85.48595277 229.10635702 89.43461852 229.135836 93.38348389 229.16900635 C97.41186047 229.19967695 101.44029035 229.21339328 105.46875 229.22851562 C113.37515167 229.26070468 121.28128477 229.31191773 129.1875 229.375 C124.77976242 252.81229694 108.02645975 273.5577659 88.80078125 286.71875 C54.71410821 309.50777468 10.95365221 316.85656654 -29.25390625 309.34375 C-60.36829367 302.92047702 -90.81551216 288.16559075 -109.0625 261.125 C-124.70403515 237.08411618 -128.13617494 212.47891468 -128.078125 184.27734375 C-128.07947522 181.95194966 -128.08141871 179.62655585 -128.08392334 177.30116272 C-128.08685722 172.44903858 -128.08263275 167.59698852 -128.07324219 162.74487305 C-128.06184241 156.55631845 -128.06842166 150.36793727 -128.08038712 144.179389 C-128.08764732 139.38443213 -128.08529885 134.58951573 -128.08013153 129.79455757 C-128.07880686 127.5138198 -128.08040082 125.23307823 -128.08509064 122.95234489 C-128.12141856 100.32826812 -128.12141856 100.32826812 -125.8125 89.375 C-125.56371094 88.09367187 -125.31492187 86.81234375 -125.05859375 85.4921875 C-118.42129739 58.8788736 -102.15587505 34.81159056 -78.57958984 20.40576172 C-54.07778633 6.11360719 -28.23944988 -0.07521412 0 0 Z " fill="#6A4F3A" transform="translate(943.8125,406.625)"/>
<path d="M0 0 C3.59481052 3.03753187 6.94361977 6.29875346 10.25390625 9.64404297 C11.52621094 10.88734375 11.52621094 10.88734375 12.82421875 12.15576172 C24.50426876 24.11748496 31.86591741 39.23174323 36.19140625 55.26904297 C36.37864258 55.95877197 36.56587891 56.64850098 36.75878906 57.35913086 C41.61975297 77.23683886 40.25390625 97.29375265 40.25390625 117.64404297 C16.49390625 117.64404297 -7.26609375 117.64404297 -31.74609375 117.64404297 C-32.07609375 107.08404297 -32.40609375 96.52404297 -32.74609375 85.64404297 C-36.73887147 71.44706218 -36.73887147 71.44706218 -44.93359375 59.46044922 C-46.74609375 57.64404297 -46.74609375 57.64404297 -46.74609375 55.64404297 C-47.32488281 55.37205078 -47.90367187 55.10005859 -48.5 54.81982422 C-50.7347872 53.6499617 -52.6457991 52.31393102 -54.68359375 50.83154297 C-65.70853308 43.35949107 -76.78669647 41.43594198 -89.74609375 41.33154297 C-90.91527344 41.30253906 -92.08445312 41.27353516 -93.2890625 41.24365234 C-107.31960843 41.14243309 -120.3662453 45.87573431 -130.765625 55.44482422 C-142.33572156 68.29288016 -145.88208137 83.42985439 -145.90431213 100.16725159 C-145.90925011 100.97531767 -145.91418809 101.78338376 -145.9192757 102.6159367 C-145.93451158 105.29660891 -145.94297316 107.97725745 -145.95141602 110.65795898 C-145.96100551 112.59029851 -145.9710162 114.52263598 -145.98141479 116.45497131 C-146.0083539 121.68153122 -146.02942271 126.90810005 -146.04941678 132.13469052 C-146.07134447 137.60396513 -146.09869986 143.07321256 -146.12547302 148.54246521 C-146.17530845 158.89069623 -146.22028109 169.23894241 -146.26349539 179.58720297 C-146.31294614 191.37196964 -146.36783512 203.15670903 -146.42317498 214.94144928 C-146.5368545 239.17562294 -146.64300608 263.40982178 -146.74609375 287.64404297 C-169.18609375 287.64404297 -191.62609375 287.64404297 -214.74609375 287.64404297 C-214.74609375 188.64404297 -214.74609375 89.64404297 -214.74609375 -12.35595703 C-193.62609375 -12.35595703 -172.50609375 -12.35595703 -150.74609375 -12.35595703 C-150.74609375 4.80404297 -150.74609375 21.96404297 -150.74609375 39.64404297 C-149.09609375 39.64404297 -147.44609375 39.64404297 -145.74609375 39.64404297 C-145.66875 38.83966797 -145.66875 38.83966797 -145.58984375 38.01904297 C-143.31164086 22.27873208 -133.88999167 8.83744057 -121.64453125 -0.88330078 C-89.25496584 -24.56472269 -32.32320725 -25.10110362 0 0 Z " fill="#6A4F3A" transform="translate(721.74609375,424.35595703125)"/>
<path d="M0 0 C23.76 0 47.52 0 72 0 C87.96105358 35.34233292 87.96105358 35.34233292 93.66085815 48.39862061 C95.53541384 52.69202793 97.41666555 56.98250389 99.296875 61.2734375 C99.87706642 62.59808517 99.87706642 62.59808517 100.46897888 63.94949341 C104.37918168 72.87351845 108.31410687 81.7865596 112.2539978 90.69750977 C113.4342441 93.36763403 114.61335735 96.03825618 115.79223633 98.70898438 C119.48703486 107.07614635 123.19173976 115.43860487 126.92573547 123.7883606 C128.6621699 127.67300827 130.39344074 131.55994728 132.1242981 135.44708252 C132.94372462 137.28347928 133.76563553 139.11876996 134.59030151 140.95281982 C143.21365596 160.13380571 149.97592476 178.74161061 151 200 C152.32 200 153.64 200 155 200 C155.02578125 199.40316406 155.0515625 198.80632812 155.078125 198.19140625 C156.4980415 176.473138 165.32127505 156.66392461 173.8125 136.9375 C174.10285126 136.26063141 174.39320251 135.58376282 174.69235229 134.88638306 C175.52479176 132.95162944 176.3644762 131.02021042 177.20703125 129.08984375 C177.6966333 127.96441162 178.18623535 126.83897949 178.69067383 125.67944336 C180 123 180 123 182 121 C183.56234375 121.87011719 183.56234375 121.87011719 185.15625 122.7578125 C202.48075904 132.26334948 219.4840412 137.89099079 239 141 C237.09999893 147.09118482 234.83791847 152.85114959 232.11328125 158.6171875 C231.73927689 159.41938217 231.36527252 160.22157684 230.97993469 161.04808044 C230.17821465 162.76641136 229.37431941 164.48372881 228.56842041 166.20010376 C226.85351517 169.85255938 225.14918663 173.50991566 223.44445801 177.16712952 C222.57053093 179.0419878 221.69609811 180.91661043 220.82116699 182.79100037 C216.70729614 191.60951172 212.6590563 200.45726362 208.625 209.3125 C203.63997591 220.2459241 198.62578322 231.16507714 193.5625 242.0625 C193.01223145 243.24690674 192.46196289 244.43131348 191.89501953 245.65161133 C188.15461924 253.69076153 188.15461924 253.69076153 187 256 C186.89470462 257.81156199 186.85339229 259.62697647 186.84178162 261.44155884 C186.8319928 262.59704727 186.82220398 263.75253571 186.81211853 264.94303894 C186.80636307 266.21689957 186.8006076 267.49076019 186.79467773 268.80322266 C186.78510131 270.15325726 186.77509137 271.50328885 186.76467896 272.85331726 C186.73759821 276.5245501 186.71660585 280.19579584 186.69667697 283.86707354 C186.67483693 287.70147596 186.64743856 291.53583848 186.62062073 295.37020874 C186.57066699 302.63393522 186.52573813 309.89768381 186.48259836 317.1614536 C186.42402637 326.97501146 186.35772512 336.78851686 186.29184818 346.60202789 C186.18823156 362.06798328 186.09497031 377.53398351 186 393 C163.56 393 141.12 393 118 393 C118.1134375 383.43257812 118.226875 373.86515625 118.34375 364.0078125 C118.379984 357.87356402 118.41204338 351.73974112 118.42578125 345.60546875 C118.44824322 335.91091081 118.48618413 326.2184622 118.63427734 316.52490234 C120.40041721 268.18913594 120.40041721 268.18913594 102.98019409 224.13072205 C99.64678363 218.86054087 97.2524244 213.20455849 94.75 207.5 C93.78229976 205.38764517 92.81142852 203.27673709 91.8359375 201.16796875 C91.36510742 200.14364746 90.89427734 199.11932617 90.40917969 198.06396484 C88.06987573 192.97764039 85.72199904 187.89527701 83.375 182.8125 C82.37495779 180.64585281 81.3749596 178.47918531 80.375 176.3125 C79.84132813 175.15621094 79.30765625 173.99992188 78.7578125 172.80859375 C38.75 86.12499999 38.75 86.12499999 37.62519836 83.68792725 C36.87453973 82.0615019 36.12387851 80.43507775 35.37321472 78.80865479 C33.50827073 74.76797228 31.64337037 70.72726966 29.77856445 66.68652344 C26.2838131 59.11405887 22.78862252 51.54179791 19.29196167 43.97021484 C17.65158951 40.41812596 16.01145495 36.86592738 14.37133789 33.3137207 C13.59411253 31.63056056 12.81677249 29.94745337 12.03930664 28.2644043 C9.98394318 23.81494052 7.93142619 19.36418783 5.88226318 14.91186523 C5.05280888 13.11443691 4.21728271 11.3198141 3.38134766 9.52539062 C2.92163574 8.53216797 2.46192383 7.53894531 1.98828125 6.515625 C1.59809814 5.67805664 1.20791504 4.84048828 0.8059082 3.97753906 C0 2 0 2 0 0 Z " fill="#6A4F3A" transform="translate(139,319)"/>
<path d="M0 0 C10.61558072 8.95039159 16.45623222 20.45303611 19.15234375 33.93359375 C19.15234375 42.18359375 19.15234375 50.43359375 19.15234375 58.93359375 C-22.09765625 58.93359375 -63.34765625 58.93359375 -105.84765625 58.93359375 C-105.84765625 37.87877188 -105.84765625 37.87877188 -104.28515625 31.62109375 C-104.11024658 30.88455566 -103.93533691 30.14801758 -103.75512695 29.38916016 C-99.87892154 14.3449748 -91.08970115 2.89829428 -77.84765625 -5.06640625 C-53.8472305 -18.40399225 -22.13038855 -16.05895136 0 0 Z " fill="#FEFDFD" transform="translate(988.84765625,474.06640625)"/>
<path d="M0 0 C1.35151893 1.16676073 2.6862781 2.35333964 4 3.5625 C4.61101562 4.07167969 5.22203125 4.58085937 5.8515625 5.10546875 C16.38063383 14.49814251 20.07915017 28.11655116 22 41.5625 C22 47.8325 22 54.1025 22 60.5625 C-19.25 60.5625 -60.5 60.5625 -103 60.5625 C-103 38.85972546 -102.13038142 21.00665822 -86.75 4.8125 C-65.05798012 -15.75501718 -24.04774818 -18.18943815 0 0 Z " fill="#FEFEFE" transform="translate(1314,472.4375)"/>
<path d="M0 0 C3.70021964 1.55888883 6.1212228 3.85760407 9 6.625 C14.6013197 11.8256855 20.50723597 15.94343888 27 20 C26.33412346 24.48188204 24.66747427 28.37327091 22.83203125 32.4765625 C22.18155337 33.95730255 21.53158874 35.43826815 20.88208008 36.91943359 C20.54334869 37.68825867 20.20461731 38.45708374 19.85562134 39.24920654 C11.04701683 59.31151779 4.66286927 78.34597875 1 100 C-0.32 100 -1.64 100 -3 100 C-3.23783203 98.1128125 -3.23783203 98.1128125 -3.48046875 96.1875 C-7.03307822 69.51934974 -18.16219202 46.42260721 -29 22 C-26.12793836 19.04974054 -23.40977737 16.87292752 -19.875 14.75 C-15.02416941 11.73690041 -10.59623391 8.42523386 -6.19140625 4.796875 C-4.16735947 3.1372288 -2.10568543 1.55408219 0 0 Z " fill="#FDFDFC" transform="translate(293,419)"/>
</svg>
