<svg xmlns="http://www.w3.org/2000/svg" width="1420" height="884" xmlns:v="https://vecta.io/nano"><path d="M0 0h1420v884H0V0z" fill="#fefefe"/><path d="M262 31l1.973.688C284.066 38.868 300.455 50.55 315 66l9.445-3.184c33.371-11.372 67.774-11.059 99.934 4.219C433.764 71.694 441.979 77.288 450 84l2.332 1.906C472.976 103.274 488.256 131.368 492 158a221.22 221.22 0 0 1 .203 8.082l.017 2.341.02 4.904.072 7.32c.054 8.896-.423 17.199-2.632 25.857-.556 2.213-.556 2.213-.681 5.497 2.08 3.098 4.069 4.746 7.102 6.906 4.895 3.536 8.248 8.335 11.898 13.094l2.023 2.582c22.894 30.178 32.154 67.626 27.227 105.168A184.17 184.17 0 0 1 536 346l-.742 3.68C530.371 372.282 519.899 393.376 505 411l-1.304 1.546c-17.372 20.316-39.568 34.102-64.758 42.767l-1.996.698c-13.776 4.492-27.564 5.474-41.942 5.677l-4.984.104L378 462l-1.091 2.41-25.037 54.714-2.27 4.911-1.137 2.46-8.316 18.064-1.191 2.594-5.652 12.323-2.024 4.411-.922 2.015c-2.272 4.949-2.272 4.949-3.435 6.946-1.17 2.727-1.186 4.869-1.202 7.835l-.034 3.51-.007 3.838-.03 4.051-.055 10.989-.068 11.487-.117 21.749-.166 29.392L325 712h-68l.344-28.992.082-18.402.208-29.081c1.766-48.336 1.766-48.336-15.654-92.394-3.333-5.27-5.728-10.926-8.23-16.631l-2.891-6.281-1.424-3.098-5.93-12.859-2.98-6.461-7.083-15.292-2.551-5.482-3.234-6.93-1.453-3.129-1.292-2.768C204 462 204 462 204 460l-1.555.487C172.288 466.81 137.041 458.158 110 445l-1.9-.913c-13.383-6.512-25.149-15.025-36.029-25.169-1.706-1.581-3.433-3.043-5.258-4.48C38.357 389.776 20.698 347.953 18 311c-2.11-46.082 10.672-88.206 41.438-123.125L64 183l2.445-2.641c4.075-4.257 7.682-7.954 12.777-10.914 7.95-4.506 7.95-4.506 12.553-12.013.826-5.939.6-11.853.312-17.827-.962-28.833 17.488-57.242 35.8-77.714C145.314 43.623 168.664 31.856 193 26l2.762-.684C217.314 20.858 241.397 23.81 262 31z" fill="#6bb93c"/><path d="M1365 436l2.355 1.855c21.379 17.747 32.935 45.052 35.645 72.145v69h-192c.217 37.436.217 37.436 17.688 67.816 7.367 6.783 16.668 10.878 26.313 13.184l1.952.51c5.774 1.425 11.237 1.839 17.173 1.802l2.775-.013c16.09-.265 31.692-4.254 45.1-13.3l2.75-1.812c2.314-1.988 2.314-1.988 3.246-4.339 1.393-2.842 2.647-4.717 5.004-6.849 5.068-1.289 10.061-1.05 15.242-.879l4.481.039 11.748.222 12.006.179L1400 636l-.926 4.282-.521 2.409c-5.488 22.879-24.586 42.104-43.741 54.434-35.686 21.127-79.72 26.37-119.812 16.875l-2.113-.469c-28.772-6.417-55.098-22.284-71.45-47.156-6.266-9.902-11.025-20.099-14.25-31.375l-.591-2.044c-3.941-14.812-3.922-29.822-3.933-45.03l-.02-6.653-.014-13.885-.062-17.625-.025-13.727-.027-6.49c-.218-33.24 8.654-64.315 32.359-88.542C1222.719 394.129 1314.298 394.69 1365 436zm-421.187-29.375l2.447.003c37.537.134 71.912 10.401 99.491 36.685C1081.646 480.511 1076 529.129 1076 579H883c.263 34.596.263 34.596 15 64l1.512 1.891c9.85 11.016 24.643 16.161 39.019 17.312 19.644 1.028 42.022-1.144 57.602-14.402A70.26 70.26 0 0 0 1006 636c2.784-.361 2.784-.361 6.377-.341l1.981-.001 6.493.049 4.498.013 11.847.074 12.085.06L1073 636c-4.408 23.437-21.161 44.183-40.387 57.344-34.087 22.789-77.847 30.138-118.055 22.625-31.114-6.423-61.562-21.178-79.809-48.219-15.642-24.041-19.074-48.646-19.016-76.848l-.006-6.976.011-14.556-.007-18.565V536.42l-.005-6.842c-.036-22.624-.036-22.624 2.273-33.577l.754-3.883c6.637-26.613 22.903-50.681 46.479-65.086 24.502-14.292 50.34-20.481 78.58-20.406zm-222.067 17.731c3.595 3.038 6.944 6.299 10.254 9.644l2.57 2.512c11.68 11.962 19.042 27.076 23.367 43.113l.567 2.09C763.366 501.593 762 521.65 762 542h-72l-1-32c-3.993-14.197-3.993-14.197-12.187-26.184C675 482 675 482 675 480l-1.754-.824c-2.235-1.17-4.146-2.506-6.184-3.988-11.025-7.472-22.103-9.396-35.062-9.5l-3.543-.088c-14.031-.101-27.077 4.632-37.477 14.201-11.57 12.848-15.116 27.985-15.139 44.722l-.015 2.449-.032 8.042-.03 5.797-.068 15.68-.076 16.408-.138 31.045-.16 35.354L575 712h-68V412h64v52h5l.156-1.625c2.278-15.74 11.7-29.182 23.945-38.902 32.39-23.681 89.321-24.218 121.645.883zM139 319h72l21.661 48.399 5.636 12.875 1.172 2.676 11.785 26.748 3.538 8.011 11.133 25.079 5.199 11.659 2.466 5.506c8.623 19.181 15.386 37.789 16.41 59.047h4l.078-1.809c1.42-21.718 10.243-41.527 18.734-61.254l.88-2.051 2.515-5.797 1.484-3.41C319 442 319 442 321 440l3.156 1.758C341.481 451.263 358.484 456.891 378 460c-1.9 6.091-4.162 11.851-6.887 17.617l-1.133 2.431-2.412 5.152-5.124 10.967-2.623 5.624-12.196 26.521-15.062 32.75-1.667 3.589L326 575c-.105 1.812-.147 3.627-.158 5.442l-.03 3.501-.017 3.86-.03 4.05-.068 11.014-.076 11.503-.138 21.791-.191 29.441L325 712h-68l.344-28.992.082-18.402.208-29.081c1.766-48.336 1.766-48.336-15.654-92.394-3.333-5.27-5.728-10.926-8.23-16.631l-2.914-6.332-1.427-3.104-7.034-15.251-3-6.5-1.617-3.504-41.133-89.121-2.252-4.879-5.595-12.122-10.487-22.716-4.921-10.656-2.332-5.049-6.157-13.353-2.501-5.386-1.393-3.01-1.182-2.538C139 321 139 321 139 319z" fill="#6a4f3a"/><path d="M988.848 474.066c10.616 8.95 16.456 20.453 19.152 33.934v25H883c0-21.055 0-21.055 1.563-27.312l.53-2.232C888.969 488.411 897.758 476.965 911 469c24-13.338 55.717-10.993 77.848 5.066z" fill="#fefdfd"/><path d="M1314 472.438l4 3.563 1.852 1.543c10.529 9.393 14.228 23.011 16.148 36.457v19h-125c0-21.703.87-39.556 16.25-55.75 21.692-20.568 62.702-23.002 86.75-4.812z" fill="#fefefe"/><path d="M293 419c3.7 1.559 6.121 3.858 9 6.625 5.601 5.201 11.507 9.318 18 13.375-.666 4.482-2.333 8.373-4.168 12.477l-1.95 4.443-1.026 2.33C304.047 478.312 297.663 497.346 294 519h-4l-.48-3.812C285.967 488.519 274.838 465.423 264 441c2.872-2.95 5.59-5.127 9.125-7.25 4.851-3.013 9.279-6.325 13.684-9.953 2.024-1.66 4.086-3.243 6.191-4.797z" fill="#fdfdfc"/></svg>